PathFileType	4	(X/Y/Z)	Patient4_TMGait_0pt4_01_left_01.trc.trc
DataRate	CameraRate	NumFrames	NumMarkers	Units	OrigDataRate	OrigDataStartFrame	OrigNumFrames
77.348066298343	77.348066298343	5	33	mm	77.348066298343	18	       141
Frame#	Time	Sacral			L.Shoulder			Chest			R.Shoulder			Neck			R.ASIS			L.ASIS			R.Thigh.Superior			R.Thigh.Lateral			R.Thigh.Inferior			R.Patella			L.Thigh.Superior			L.Thigh.Lateral			L.Thigh.Inferior			L.Patella			L.Shank.Superior			L.Shank.Lateral			L.Shank.Inferior			R.Shank.Superior			R.Shank.Lateral			R.Shank.Inferior			R.Heel			R.Midfoot.Superior			R.Midfoot.Lateral			R.Toe			L.Heel			L.Midfoot.Lateral			L.Midfoot.Superior			L.Toe			L.Elbow			L.Wrist			R.Elbow			R.Wrist			
		X1	Y1	Z1	X2	Y2	Z2	X3	Y3	Z3	X4	Y4	Z4	X5	Y5	Z5	X6	Y6	Z6	X7	Y7	Z7	X8	Y8	Z8	X9	Y9	Z9	X10	Y10	Z10	X11	Y11	Z11	X12	Y12	Z12	X13	Y13	Z13	X14	Y14	Z14	X15	Y15	Z15	X16	Y16	Z16	X17	Y17	Z17	X18	Y18	Z18	X19	Y19	Z19	X20	Y20	Z20	X21	Y21	Z21	X22	Y22	Z22	X23	Y23	Z23	X24	Y24	Z24	X25	Y25	Z25	X26	Y26	Z26	X27	Y27	Z27	X28	Y28	Z28	X29	Y29	Z29	X30	Y30	Z30	X31	Y31	Z31	X32	Y32	Z32	X33	Y33	Z33	

18	0.329785714286	819.393981156392	1008.780932295524	568.689697216836	960.794887397774	1434.367550349264	353.608198504691	1095.506658277174	1365.192140486414	488.725057592107	1054.690140376878	1443.242881301105	675.813568183816	979.225512454435	1496.314754711131	507.351888630603	1064.894085939450	939.426926014109	636.191952688694	998.033062201378	967.112506551309	369.005479634302	1066.996812995052	731.077158456301	606.548949995195	977.947252498275	633.318571437449	682.425313537155	1030.382002489660	571.707777173059	594.160495215778	1017.548988533984	489.484012106743	602.288024559712	1066.483617876644	771.025506938565	392.732877397379	1005.923340389811	649.156927733512	316.920022935483	1105.968025480355	580.412002673620	374.141166531069	1130.610143202358	523.315053741257	369.248965504200	1119.294596915739	455.881554618876	355.526148620998	1067.207178284572	321.252259536408	301.432261499452	1167.091753011601	230.986093354910	351.092593698210	987.372441337218	402.845089982282	611.945062000406	918.014604311485	300.267835961373	678.688091729487	951.915475593403	205.468965287680	610.636017339617	812.490583366874	42.716234204857	582.565471880970	984.217949252331	97.015198286155	615.915038201197	896.814416516257	35.974404225564	655.780821562983	1104.753401907526	45.124539002732	641.726445998124	1102.001196508053	46.387362949655	387.058514506435	1178.445097437171	51.926236055515	309.689976725628	1242.803500634732	135.722915610829	328.156008865830	1378.901284599558	115.755362071924	308.522361017284	847.050734848298	1092.203209841770	274.366486650270	837.578032782377	832.935091242327	270.993551856326	1180.013989827460	1128.806197808028	799.586410218543	1420.840358708629	1144.360681709164	725.734446733336	
19	0.342714285714	819.337540830253	1008.204467002707	567.294048156235	960.317937565424	1433.686316164519	351.764199712649	1095.043800235072	1364.605335266529	486.910121087409	1054.142839789685	1442.756907784780	673.893377960374	978.645420646380	1495.692659470128	505.430154239626	1064.898270617786	938.983536545205	634.986642767335	997.917236644390	965.927999322866	367.607658175026	1065.905444510715	730.367890500442	605.721274120248	976.245139462016	632.992900056075	681.672019412241	1028.316989313309	571.018707647540	593.563760149526	1014.938012550478	488.807525929854	601.709362627169	1065.859261699648	769.444568969833	390.658704861053	1002.991512013833	646.913498804068	317.095308372496	1104.137373725263	578.644895525328	372.616712722262	1128.488544295094	521.580212453065	368.347759354509	1116.985616534849	454.045790458009	355.533906439874	1064.199225805366	319.104007211376	303.427447094090	1164.744275204897	229.272970150159	352.330953938526	984.222113177419	402.279285096730	611.502996552147	914.218115077040	300.233157618047	678.471159406444	947.457556933129	205.157329659126	610.470205440499	807.247477858790	42.731747583164	582.594311095730	978.962646594150	96.982457927466	615.912854925804	891.556557732919	35.960621197001	655.820192016980	1099.483877547124	45.140490808562	641.747255087302	1100.216246607703	45.339790901047	390.589292811989	1175.230852567519	50.469173067891	311.942167801782	1240.227498589102	133.764326289592	329.134035152297	1375.657754010581	113.124917699571	307.185540096766	846.400535705339	1091.771837578423	272.207178336015	837.307752112994	832.490649015267	268.448713011469	1181.940488450416	1128.684234013324	795.563012858326	1422.242710570019	1148.043511272706	721.445054644459	
20	0.355642857143	819.444015583263	1007.454158495900	565.631879455863	959.816245957572	1432.894861133424	349.711647693912	1094.522610471162	1364.035981232163	484.981945070599	1053.344286593885	1442.224535750302	671.848295491168	977.932989359126	1494.994616682418	503.327835599957	1065.068382370071	938.519206005465	633.738760809784	998.203010140502	964.626055738252	366.120660732305	1065.042518224896	729.620325055939	604.821196187194	974.806493791333	632.594518958994	680.820731735561	1026.566214546936	570.266106349507	592.886577481697	1012.628307969983	488.044643888550	601.029446860735	1065.932207836348	767.916030977628	388.532707229335	1000.752528706837	644.601583087663	317.365421110297	1102.960228916840	576.880181584214	371.229423918912	1126.931833226769	519.477513288676	367.606737143337	1114.893571876038	451.684965788182	355.774863352976	1060.505564859176	316.795875761707	305.657012098066	1160.994516948326	226.731672309816	353.900807599810	981.336949797984	401.603157115997	610.969623860186	910.607548355345	300.157752481004	678.170323523080	943.104268831735	204.774286883979	610.249327892334	802.007405835628	42.730345156202	582.620508027119	973.702478981579	96.944112340853	615.897194972905	886.298897648488	35.942172736752	655.861047623203	1094.207245377869	45.167523077015	641.772103059169	1095.755074891191	44.086682179191	394.512584559559	1169.035423614120	48.566031597784	314.305535598089	1235.435406772553	130.628000919144	330.318673862674	1369.855616877551	108.244780641335	305.363388102523	846.073477992945	1091.133547875425	269.685307417205	838.007444325768	831.802642992578	265.506876736160	1183.173121538832	1128.288762935897	791.491265798394	1423.050730884016	1150.736141406704	717.254192850805	
21	0.368571428571	819.729277829191	1006.534893082895	563.714115146842	959.298298859738	1431.988992738176	347.446258883981	1093.957333689378	1363.488723509039	482.931852935433	1052.320294173418	1441.655776194805	669.671809947654	977.106102355179	1494.225634179801	501.039791113694	1065.410980313582	938.023099996293	632.448351391501	998.899120815186	963.235984007460	364.558930109843	1064.440104422817	728.821019917386	603.859596443715	973.646312215122	632.111347860619	679.860413684083	1025.143499417961	569.440075203636	592.111295833314	1010.629684226743	487.179637981747	600.227615273610	1066.631233593628	766.388672860273	386.437402256266	999.192795608194	642.285608367180	317.640097798427	1102.301823024441	575.095368916589	370.038915700545	1125.789428952071	517.071287098036	367.096589783108	1113.003591620171	448.913770597642	356.211563004563	1056.400605395966	314.364891388488	307.937934263316	1156.238633974235	223.540140830785	355.705957312534	978.719221249852	400.811588533897	610.326459210069	907.191020091508	300.038250819773	677.778774715466	938.852005079285	204.313568781266	609.965871910810	796.771647590715	42.704334704104	582.644199444251	968.438539239806	96.898585166703	615.866197917781	881.041333187624	35.913628145310	655.900715502273	1088.927299639508	45.197206892023	641.802592707394	1089.204807642659	42.713887214102	398.540806303008	1160.624093859454	46.355401230555	316.656573932878	1229.060235010084	126.536395284335	331.714549564213	1362.210670201381	101.472045176393	303.391196634433	846.074094657958	1090.277747715585	266.834455630114	839.634871186602	830.867654663503	262.206086604080	1183.704030865120	1127.615549453445	787.417183677044	1423.276696639047	1152.418462854755	713.184277184365	
22	0.381500000000	820.202685496797	1005.465425543365	561.559268776658	958.780102912572	1430.974004792962	344.967031190700	1093.367300913606	1362.973447232277	480.754414740537	1051.105858778299	1441.071726592895	667.358010986984	976.190289144333	1493.400167977701	498.560421066513	1065.927365455287	937.487457714949	631.112716419694	999.992655548647	961.807821272569	362.937654974947	1064.131075126060	727.960187926434	602.840390803182	972.776243303249	631.535352256311	678.770985177360	1024.060999898828	568.534107220562	591.211260721444	1008.951994793819	486.196120208119	599.273954940722	1067.864398160026	764.832632219960	384.440515240298	998.271115537949	640.047421196847	317.824634757484	1102.030777767926	573.303144300408	369.075119749159	1124.910674970359	514.472484576463	366.844478835327	1111.306657681699	445.892936232932	356.771154283927	1052.178302633291	311.889870738341	310.080436456312	1150.914559670344	219.946692783822	357.619801962618	976.368537190079	399.903314272174	609.548680769922	903.973393637073	299.877626278656	677.284614628362	934.696310397300	203.773934443825	609.610588214800	791.541238940785	42.648769000083	582.665438640742	963.173874689535	96.845814887462	615.818060834843	875.784245000857	35.870521168547	655.935749782183	1083.649513167363	45.217113782092	641.840171041164	1081.249080397589	41.339019573021	402.391915209413	1150.856267000044	44.026599330067	318.872047370777	1221.773043837364	121.822637726515	333.293658271483	1353.494789508251	93.365278060284	301.576030558860	846.417017150477	1089.202980542517	263.691475849671	842.141490679923	829.695427896113	258.587409599456	1183.529946301512	1126.672834358823	783.384823550174	1422.931128834541	1153.068631465450	709.253407527619	
